REM MD5 90cb6b1e638e6706a57146a453ada498
FILE "Blast Lacrosse (USA).bin" BINARY
  TRACK 01 MODE2/2352
    INDEX 01 00:00:00
  TRACK 02 AUDIO
    INDEX 00 05:22:37
    INDEX 01 05:24:37
  TRACK 03 AUDIO
    INDEX 00 18:40:36
    INDEX 01 18:42:36
REM LEADOUT 21:42:61
